<?xml version="1.0" encoding="UTF-8" standalone="no"?>
<!DOCTYPE svg PUBLIC "-//W3C//DTD SVG 1.1//EN"
 "http://www.w3.org/Graphics/SVG/1.1/DTD/svg11.dtd">
<!-- Generated by graphviz version 2.40.1 (20161225.0304)
 -->
<!-- Title: %3 Pages: 1 -->
<svg width="961pt" height="620pt"
 viewBox="0.00 0.00 960.59 620.00" xmlns="http://www.w3.org/2000/svg" xmlns:xlink="http://www.w3.org/1999/xlink">
<g id="graph0" class="graph" transform="scale(1 1) rotate(0) translate(4 616)">
<title>%3</title>
<polygon fill="#ffffff" stroke="transparent" points="-4,4 -4,-616 956.5882,-616 956.5882,4 -4,4"/>
<!-- 0 (PROG) -->
<g id="node1" class="node">
<title>0 (PROG)</title>
<ellipse fill="none" stroke="#000000" cx="324.545" cy="-594" rx="46.5926" ry="18"/>
<text text-anchor="middle" x="324.545" y="-590.3" font-family="Times,serif" font-size="14.00" fill="#000000">0 (PROG)</text>
</g>
<!-- 1 (BLOCK) -->
<g id="node2" class="node">
<title>1 (BLOCK)</title>
<ellipse fill="none" stroke="#000000" cx="324.545" cy="-522" rx="53.0913" ry="18"/>
<text text-anchor="middle" x="324.545" y="-518.3" font-family="Times,serif" font-size="14.00" fill="#000000">1 (BLOCK)</text>
</g>
<!-- 0 (PROG)&#45;&gt;1 (BLOCK) -->
<g id="edge1" class="edge">
<title>0 (PROG)&#45;&gt;1 (BLOCK)</title>
<path fill="none" stroke="#000000" d="M324.545,-575.8314C324.545,-568.131 324.545,-558.9743 324.545,-550.4166"/>
<polygon fill="#000000" stroke="#000000" points="328.0451,-550.4132 324.545,-540.4133 321.0451,-550.4133 328.0451,-550.4132"/>
</g>
<!-- 2 ({) -->
<g id="node3" class="node">
<title>2 ({)</title>
<ellipse fill="none" stroke="#000000" cx="220.545" cy="-450" rx="27.8951" ry="18"/>
<text text-anchor="middle" x="220.545" y="-446.3" font-family="Times,serif" font-size="14.00" fill="#000000">2 ({)</text>
</g>
<!-- 1 (BLOCK)&#45;&gt;2 ({) -->
<g id="edge2" class="edge">
<title>1 (BLOCK)&#45;&gt;2 ({)</title>
<path fill="none" stroke="#000000" d="M300.9458,-505.6621C285.3714,-494.8798 264.8938,-480.703 248.5028,-469.3554"/>
<polygon fill="#000000" stroke="#000000" points="250.0884,-466.1963 239.8743,-463.3818 246.1039,-471.9516 250.0884,-466.1963"/>
</g>
<!-- 3 (OP_LIST) -->
<g id="node4" class="node">
<title>3 (OP_LIST)</title>
<ellipse fill="none" stroke="#000000" cx="324.545" cy="-450" rx="57.6901" ry="18"/>
<text text-anchor="middle" x="324.545" y="-446.3" font-family="Times,serif" font-size="14.00" fill="#000000">3 (OP_LIST)</text>
</g>
<!-- 1 (BLOCK)&#45;&gt;3 (OP_LIST) -->
<g id="edge3" class="edge">
<title>1 (BLOCK)&#45;&gt;3 (OP_LIST)</title>
<path fill="none" stroke="#000000" d="M324.545,-503.8314C324.545,-496.131 324.545,-486.9743 324.545,-478.4166"/>
<polygon fill="#000000" stroke="#000000" points="328.0451,-478.4132 324.545,-468.4133 321.0451,-478.4133 328.0451,-478.4132"/>
</g>
<!-- 24 (}) -->
<g id="node5" class="node">
<title>24 (})</title>
<ellipse fill="none" stroke="#000000" cx="432.545" cy="-450" rx="32.4942" ry="18"/>
<text text-anchor="middle" x="432.545" y="-446.3" font-family="Times,serif" font-size="14.00" fill="#000000">24 (})</text>
</g>
<!-- 1 (BLOCK)&#45;&gt;24 (}) -->
<g id="edge4" class="edge">
<title>1 (BLOCK)&#45;&gt;24 (})</title>
<path fill="none" stroke="#000000" d="M348.7823,-505.8418C364.8821,-495.1086 386.1149,-480.9534 403.1743,-469.5805"/>
<polygon fill="#000000" stroke="#000000" points="405.2865,-472.3789 411.6655,-463.9197 401.4035,-466.5545 405.2865,-472.3789"/>
</g>
<!-- 4 (OP) -->
<g id="node6" class="node">
<title>4 (OP)</title>
<ellipse fill="none" stroke="#000000" cx="252.545" cy="-378" rx="34.394" ry="18"/>
<text text-anchor="middle" x="252.545" y="-374.3" font-family="Times,serif" font-size="14.00" fill="#000000">4 (OP)</text>
</g>
<!-- 3 (OP_LIST)&#45;&gt;4 (OP) -->
<g id="edge5" class="edge">
<title>3 (OP_LIST)&#45;&gt;4 (OP)</title>
<path fill="none" stroke="#000000" d="M307.1158,-432.5708C297.8297,-423.2847 286.2734,-411.7285 276.1892,-401.6442"/>
<polygon fill="#000000" stroke="#000000" points="278.3726,-398.8779 268.8267,-394.2817 273.4229,-403.8277 278.3726,-398.8779"/>
</g>
<!-- 22 (TAIL) -->
<g id="node7" class="node">
<title>22 (TAIL)</title>
<ellipse fill="none" stroke="#000000" cx="395.545" cy="-378" rx="48.1917" ry="18"/>
<text text-anchor="middle" x="395.545" y="-374.3" font-family="Times,serif" font-size="14.00" fill="#000000">22 (TAIL)</text>
</g>
<!-- 3 (OP_LIST)&#45;&gt;22 (TAIL) -->
<g id="edge6" class="edge">
<title>3 (OP_LIST)&#45;&gt;22 (TAIL)</title>
<path fill="none" stroke="#000000" d="M341.7321,-432.5708C350.6276,-423.55 361.6356,-412.387 371.3733,-402.5121"/>
<polygon fill="#000000" stroke="#000000" points="373.9868,-404.8466 378.5161,-395.2687 369.0025,-399.9315 373.9868,-404.8466"/>
</g>
<!-- 5 (ID) -->
<g id="node8" class="node">
<title>5 (ID)</title>
<ellipse fill="none" stroke="#000000" cx="127.545" cy="-306" rx="32.4942" ry="18"/>
<text text-anchor="middle" x="127.545" y="-302.3" font-family="Times,serif" font-size="14.00" fill="#000000">5 (ID)</text>
</g>
<!-- 4 (OP)&#45;&gt;5 (ID) -->
<g id="edge7" class="edge">
<title>4 (OP)&#45;&gt;5 (ID)</title>
<path fill="none" stroke="#000000" d="M229.3264,-364.6261C209.5574,-353.2391 180.9707,-336.7732 159.1231,-324.189"/>
<polygon fill="#000000" stroke="#000000" points="160.63,-321.0179 150.2178,-319.0595 157.1361,-327.0837 160.63,-321.0179"/>
</g>
<!-- 7 (=) -->
<g id="node9" class="node">
<title>7 (=)</title>
<ellipse fill="none" stroke="#000000" cx="206.545" cy="-306" rx="28.6953" ry="18"/>
<text text-anchor="middle" x="206.545" y="-302.3" font-family="Times,serif" font-size="14.00" fill="#000000">7 (=)</text>
</g>
<!-- 4 (OP)&#45;&gt;7 (=) -->
<g id="edge8" class="edge">
<title>4 (OP)&#45;&gt;7 (=)</title>
<path fill="none" stroke="#000000" d="M241.4097,-360.5708C235.791,-351.7763 228.8714,-340.9457 222.6818,-331.2577"/>
<polygon fill="#000000" stroke="#000000" points="225.5944,-329.3155 217.261,-322.7729 219.6955,-333.0843 225.5944,-329.3155"/>
</g>
<!-- 8 (EXPR) -->
<g id="node10" class="node">
<title>8 (EXPR)</title>
<ellipse fill="none" stroke="#000000" cx="299.545" cy="-306" rx="46.2923" ry="18"/>
<text text-anchor="middle" x="299.545" y="-302.3" font-family="Times,serif" font-size="14.00" fill="#000000">8 (EXPR)</text>
</g>
<!-- 4 (OP)&#45;&gt;8 (EXPR) -->
<g id="edge9" class="edge">
<title>4 (OP)&#45;&gt;8 (EXPR)</title>
<path fill="none" stroke="#000000" d="M263.6833,-360.937C269.2948,-352.3407 276.221,-341.7304 282.4854,-332.1338"/>
<polygon fill="#000000" stroke="#000000" points="285.4603,-333.9794 287.9958,-323.6924 279.5987,-330.153 285.4603,-333.9794"/>
</g>
<!-- 23 (&lt;EPSILON&gt;) -->
<g id="node25" class="node">
<title>23 (&lt;EPSILON&gt;)</title>
<ellipse fill="none" stroke="#000000" cx="438.545" cy="-306" rx="74.9875" ry="18"/>
<text text-anchor="middle" x="438.545" y="-302.3" font-family="Times,serif" font-size="14.00" fill="#000000">23 (&lt;EPSILON&gt;)</text>
</g>
<!-- 22 (TAIL)&#45;&gt;23 (&lt;EPSILON&gt;) -->
<g id="edge24" class="edge">
<title>22 (TAIL)&#45;&gt;23 (&lt;EPSILON&gt;)</title>
<path fill="none" stroke="#000000" d="M406.1742,-360.2022C411.1358,-351.8944 417.1456,-341.8316 422.6334,-332.6427"/>
<polygon fill="#000000" stroke="#000000" points="425.7665,-334.2226 427.889,-323.8425 419.7567,-330.6334 425.7665,-334.2226"/>
</g>
<!-- 6 ($id) -->
<g id="node11" class="node">
<title>6 ($id)</title>
<ellipse fill="none" stroke="#000000" cx="127.545" cy="-234" rx="34.394" ry="18"/>
<text text-anchor="middle" x="127.545" y="-230.3" font-family="Times,serif" font-size="14.00" fill="#000000">6 ($id)</text>
</g>
<!-- 5 (ID)&#45;&gt;6 ($id) -->
<g id="edge10" class="edge">
<title>5 (ID)&#45;&gt;6 ($id)</title>
<path fill="none" stroke="#000000" d="M127.545,-287.8314C127.545,-280.131 127.545,-270.9743 127.545,-262.4166"/>
<polygon fill="#000000" stroke="#000000" points="131.0451,-262.4132 127.545,-252.4133 124.0451,-262.4133 131.0451,-262.4132"/>
</g>
<!-- 9 (AR_EXPR) -->
<g id="node12" class="node">
<title>9 (AR_EXPR)</title>
<ellipse fill="none" stroke="#000000" cx="270.545" cy="-234" rx="62.2891" ry="18"/>
<text text-anchor="middle" x="270.545" y="-230.3" font-family="Times,serif" font-size="14.00" fill="#000000">9 (AR_EXPR)</text>
</g>
<!-- 8 (EXPR)&#45;&gt;9 (AR_EXPR) -->
<g id="edge11" class="edge">
<title>8 (EXPR)&#45;&gt;9 (AR_EXPR)</title>
<path fill="none" stroke="#000000" d="M292.3764,-288.2022C289.1246,-280.1287 285.2051,-270.3976 281.59,-261.422"/>
<polygon fill="#000000" stroke="#000000" points="284.8152,-260.0613 277.8325,-252.0931 278.3221,-262.6766 284.8152,-260.0613"/>
</g>
<!-- 14 (EXPR_S) -->
<g id="node13" class="node">
<title>14 (EXPR_S)</title>
<ellipse fill="none" stroke="#000000" cx="525.545" cy="-234" rx="59.5901" ry="18"/>
<text text-anchor="middle" x="525.545" y="-230.3" font-family="Times,serif" font-size="14.00" fill="#000000">14 (EXPR_S)</text>
</g>
<!-- 8 (EXPR)&#45;&gt;14 (EXPR_S) -->
<g id="edge12" class="edge">
<title>8 (EXPR)&#45;&gt;14 (EXPR_S)</title>
<path fill="none" stroke="#000000" d="M335.0309,-294.3264C341.5188,-292.2092 348.2323,-290.0297 354.545,-288 394.7385,-275.0769 440.3345,-260.6919 474.3299,-250.0203"/>
<polygon fill="#000000" stroke="#000000" points="475.5479,-253.3065 484.0418,-246.9736 473.4526,-246.6274 475.5479,-253.3065"/>
</g>
<!-- 10 (CONST) -->
<g id="node14" class="node">
<title>10 (CONST)</title>
<ellipse fill="none" stroke="#000000" cx="56.545" cy="-162" rx="56.59" ry="18"/>
<text text-anchor="middle" x="56.545" y="-158.3" font-family="Times,serif" font-size="14.00" fill="#000000">10 (CONST)</text>
</g>
<!-- 9 (AR_EXPR)&#45;&gt;10 (CONST) -->
<g id="edge13" class="edge">
<title>9 (AR_EXPR)&#45;&gt;10 (CONST)</title>
<path fill="none" stroke="#000000" d="M229.7895,-220.2879C194.3891,-208.3775 143.0397,-191.101 105.4352,-178.449"/>
<polygon fill="#000000" stroke="#000000" points="106.2985,-175.0468 95.7044,-175.1751 104.0663,-181.6813 106.2985,-175.0468"/>
</g>
<!-- 12 (TERM_S) -->
<g id="node15" class="node">
<title>12 (TERM_S)</title>
<ellipse fill="none" stroke="#000000" cx="192.545" cy="-162" rx="61.99" ry="18"/>
<text text-anchor="middle" x="192.545" y="-158.3" font-family="Times,serif" font-size="14.00" fill="#000000">12 (TERM_S)</text>
</g>
<!-- 9 (AR_EXPR)&#45;&gt;12 (TERM_S) -->
<g id="edge14" class="edge">
<title>9 (AR_EXPR)&#45;&gt;12 (TERM_S)</title>
<path fill="none" stroke="#000000" d="M251.6634,-216.5708C241.795,-207.4616 229.5602,-196.1679 218.7855,-186.2221"/>
<polygon fill="#000000" stroke="#000000" points="220.9748,-183.4797 211.2527,-179.2687 216.2268,-188.6233 220.9748,-183.4797"/>
</g>
<!-- 13 (AR_EXPR_S) -->
<g id="node16" class="node">
<title>13 (AR_EXPR_S)</title>
<ellipse fill="none" stroke="#000000" cx="348.545" cy="-162" rx="76.0865" ry="18"/>
<text text-anchor="middle" x="348.545" y="-158.3" font-family="Times,serif" font-size="14.00" fill="#000000">13 (AR_EXPR_S)</text>
</g>
<!-- 9 (AR_EXPR)&#45;&gt;13 (AR_EXPR_S) -->
<g id="edge15" class="edge">
<title>9 (AR_EXPR)&#45;&gt;13 (AR_EXPR_S)</title>
<path fill="none" stroke="#000000" d="M289.4266,-216.5708C299.2224,-207.5286 311.35,-196.3338 322.0665,-186.4417"/>
<polygon fill="#000000" stroke="#000000" points="324.5928,-188.8729 329.5669,-179.5182 319.8448,-183.7292 324.5928,-188.8729"/>
</g>
<!-- 15 (&lt;RELATION&gt;) -->
<g id="node18" class="node">
<title>15 (&lt;RELATION&gt;)</title>
<ellipse fill="none" stroke="#000000" cx="525.545" cy="-162" rx="82.5854" ry="18"/>
<text text-anchor="middle" x="525.545" y="-158.3" font-family="Times,serif" font-size="14.00" fill="#000000">15 (&lt;RELATION&gt;)</text>
</g>
<!-- 14 (EXPR_S)&#45;&gt;15 (&lt;RELATION&gt;) -->
<g id="edge17" class="edge">
<title>14 (EXPR_S)&#45;&gt;15 (&lt;RELATION&gt;)</title>
<path fill="none" stroke="#000000" d="M525.545,-215.8314C525.545,-208.131 525.545,-198.9743 525.545,-190.4166"/>
<polygon fill="#000000" stroke="#000000" points="529.0451,-190.4132 525.545,-180.4133 522.0451,-190.4133 529.0451,-190.4132"/>
</g>
<!-- 17 (AR_EXPR) -->
<g id="node19" class="node">
<title>17 (AR_EXPR)</title>
<ellipse fill="none" stroke="#000000" cx="711.545" cy="-162" rx="66.8882" ry="18"/>
<text text-anchor="middle" x="711.545" y="-158.3" font-family="Times,serif" font-size="14.00" fill="#000000">17 (AR_EXPR)</text>
</g>
<!-- 14 (EXPR_S)&#45;&gt;17 (AR_EXPR) -->
<g id="edge18" class="edge">
<title>14 (EXPR_S)&#45;&gt;17 (AR_EXPR)</title>
<path fill="none" stroke="#000000" d="M562.2926,-219.7751C591.3642,-208.5216 632.1828,-192.7208 663.7863,-180.4872"/>
<polygon fill="#000000" stroke="#000000" points="665.213,-183.6881 673.2752,-176.8141 662.686,-177.1601 665.213,-183.6881"/>
</g>
<!-- 11 ($const) -->
<g id="node17" class="node">
<title>11 ($const)</title>
<ellipse fill="none" stroke="#000000" cx="56.545" cy="-90" rx="50.8918" ry="18"/>
<text text-anchor="middle" x="56.545" y="-86.3" font-family="Times,serif" font-size="14.00" fill="#000000">11 ($const)</text>
</g>
<!-- 10 (CONST)&#45;&gt;11 ($const) -->
<g id="edge16" class="edge">
<title>10 (CONST)&#45;&gt;11 ($const)</title>
<path fill="none" stroke="#000000" d="M56.545,-143.8314C56.545,-136.131 56.545,-126.9743 56.545,-118.4166"/>
<polygon fill="#000000" stroke="#000000" points="60.0451,-118.4132 56.545,-108.4133 53.0451,-118.4133 60.0451,-118.4132"/>
</g>
<!-- 16 (&lt;) -->
<g id="node20" class="node">
<title>16 (&lt;)</title>
<ellipse fill="none" stroke="#000000" cx="515.545" cy="-90" rx="33.2948" ry="18"/>
<text text-anchor="middle" x="515.545" y="-86.3" font-family="Times,serif" font-size="14.00" fill="#000000">16 (&lt;)</text>
</g>
<!-- 15 (&lt;RELATION&gt;)&#45;&gt;16 (&lt;) -->
<g id="edge19" class="edge">
<title>15 (&lt;RELATION&gt;)&#45;&gt;16 (&lt;)</title>
<path fill="none" stroke="#000000" d="M523.0216,-143.8314C521.9521,-136.131 520.6803,-126.9743 519.4917,-118.4166"/>
<polygon fill="#000000" stroke="#000000" points="522.9449,-117.8367 518.1024,-108.4133 516.0114,-118.7997 522.9449,-117.8367"/>
</g>
<!-- 18 (ID) -->
<g id="node21" class="node">
<title>18 (ID)</title>
<ellipse fill="none" stroke="#000000" cx="603.545" cy="-90" rx="37.0935" ry="18"/>
<text text-anchor="middle" x="603.545" y="-86.3" font-family="Times,serif" font-size="14.00" fill="#000000">18 (ID)</text>
</g>
<!-- 17 (AR_EXPR)&#45;&gt;18 (ID) -->
<g id="edge20" class="edge">
<title>17 (AR_EXPR)&#45;&gt;18 (ID)</title>
<path fill="none" stroke="#000000" d="M686.4962,-145.3008C670.9335,-134.9257 650.8159,-121.514 634.2902,-110.4968"/>
<polygon fill="#000000" stroke="#000000" points="635.7926,-107.2919 625.5306,-104.6571 631.9096,-113.1163 635.7926,-107.2919"/>
</g>
<!-- 20 (TERM_S) -->
<g id="node22" class="node">
<title>20 (TERM_S)</title>
<ellipse fill="none" stroke="#000000" cx="720.545" cy="-90" rx="61.99" ry="18"/>
<text text-anchor="middle" x="720.545" y="-86.3" font-family="Times,serif" font-size="14.00" fill="#000000">20 (TERM_S)</text>
</g>
<!-- 17 (AR_EXPR)&#45;&gt;20 (TERM_S) -->
<g id="edge21" class="edge">
<title>17 (AR_EXPR)&#45;&gt;20 (TERM_S)</title>
<path fill="none" stroke="#000000" d="M713.8161,-143.8314C714.7786,-136.131 715.9232,-126.9743 716.9929,-118.4166"/>
<polygon fill="#000000" stroke="#000000" points="720.4759,-118.7702 718.2433,-108.4133 713.5299,-117.9019 720.4759,-118.7702"/>
</g>
<!-- 21 (AR_EXPR_S) -->
<g id="node23" class="node">
<title>21 (AR_EXPR_S)</title>
<ellipse fill="none" stroke="#000000" cx="876.545" cy="-90" rx="76.0865" ry="18"/>
<text text-anchor="middle" x="876.545" y="-86.3" font-family="Times,serif" font-size="14.00" fill="#000000">21 (AR_EXPR_S)</text>
</g>
<!-- 17 (AR_EXPR)&#45;&gt;21 (AR_EXPR_S) -->
<g id="edge22" class="edge">
<title>17 (AR_EXPR)&#45;&gt;21 (AR_EXPR_S)</title>
<path fill="none" stroke="#000000" d="M746.9416,-146.5542C771.3989,-135.8819 804.1618,-121.5854 830.6269,-110.037"/>
<polygon fill="#000000" stroke="#000000" points="832.2997,-113.1258 840.0653,-105.9184 829.5,-106.71 832.2997,-113.1258"/>
</g>
<!-- 19 ($id) -->
<g id="node24" class="node">
<title>19 ($id)</title>
<ellipse fill="none" stroke="#000000" cx="603.545" cy="-18" rx="38.9931" ry="18"/>
<text text-anchor="middle" x="603.545" y="-14.3" font-family="Times,serif" font-size="14.00" fill="#000000">19 ($id)</text>
</g>
<!-- 18 (ID)&#45;&gt;19 ($id) -->
<g id="edge23" class="edge">
<title>18 (ID)&#45;&gt;19 ($id)</title>
<path fill="none" stroke="#000000" d="M603.545,-71.8314C603.545,-64.131 603.545,-54.9743 603.545,-46.4166"/>
<polygon fill="#000000" stroke="#000000" points="607.0451,-46.4132 603.545,-36.4133 600.0451,-46.4133 607.0451,-46.4132"/>
</g>
</g>
</svg>
